{"glyphs":{":":{"x_min":0,"x_max":270,"ha":270,"o":"m 224 403 q 224 383 217 368 q 210 352 198 341 q 186 331 170 325 q 153 319 135 319 q 121 319 108 323 q 95 327 85 335 q 75 343 70 355 q 64 368 64 385 q 64 404 71 420 q 79 436 91 446 q 104 457 120 463 q 136 469 154 469 q 167 469 180 465 q 193 461 203 453 q 212 445 218 432 q 224 420 224 403 z m 224 64 q 224 44 217 29 q 210 13 198 2 q 186 -8 170 -14 q 153 -20 135 -20 q 121 -20 108 -16 q 95 -12 85 -4 q 75 4 70 16 q 64 29 64 46 q 64 65 71 81 q 79 97 91 107 q 104 118 120 124 q 136 130 154 130 q 167 130 180 126 q 193 122 203 114 q 212 106 218 94 q 224 81 224 64 z"},"$":{"x_min":0,"x_max":506,"ha":506,"o":"m 139 464 q 139 449 146 437 q 152 424 163 415 q 174 405 189 397 q 204 389 222 381 l 222 533 q 202 531 187 525 q 171 519 161 510 q 150 500 145 489 q 139 477 139 464 z m 362 155 q 362 174 356 189 q 350 204 339 216 q 328 228 313 238 q 298 247 281 255 l 281 67 q 297 70 312 76 q 326 83 338 94 q 349 104 356 120 q 362 135 362 155 z m 281 -62 q 272 -70 261 -76 q 251 -82 239 -85 l 222 -71 l 222 -4 q 181 -3 133 12 q 85 27 42 54 q 40 56 39 65 q 38 74 37 87 q 37 100 38 115 q 38 131 39 147 q 40 163 42 177 q 44 190 46 199 l 82 197 q 94 172 108 151 q 122 129 139 113 q 156 96 177 85 q 197 74 222 69 l 222 278 q 189 290 157 302 q 125 314 99 333 q 73 351 57 377 q 41 403 41 441 q 41 462 49 487 q 58 511 79 532 q 101 554 135 570 q 170 586 222 591 l 222 655 q 229 659 234 662 q 238 665 243 667 q 247 670 252 672 q 257 674 264 676 l 281 662 l 281 592 q 306 590 332 586 q 357 581 379 574 q 401 567 418 559 q 435 550 444 542 q 447 538 443 523 q 439 509 433 491 q 426 474 417 458 q 409 442 403 436 l 369 440 q 353 474 331 496 q 310 518 281 528 l 281 360 q 313 348 346 334 q 379 320 406 300 q 432 279 448 250 q 465 222 465 181 q 465 151 455 122 q 444 92 422 67 q 400 42 365 23 q 330 5 281 -1 z"},"?":{"x_min":0,"x_max":455,"ha":455,"o":"m 423 569 q 423 532 410 502 q 398 472 379 446 q 360 420 338 396 q 316 373 296 350 q 277 326 263 302 q 250 277 248 248 l 245 201 q 235 194 223 190 q 210 185 196 181 l 181 195 l 177 248 q 175 276 184 303 q 192 330 205 355 q 218 380 234 405 q 250 429 263 453 q 277 477 286 500 q 295 523 295 547 q 295 607 276 636 q 256 665 222 665 q 209 665 198 659 q 187 652 178 641 q 170 630 165 614 q 160 598 160 579 q 160 572 161 563 q 163 554 166 547 q 158 543 143 539 q 127 534 111 530 q 94 525 77 522 q 61 519 50 518 l 33 536 q 32 540 32 548 l 32 560 q 32 594 50 624 q 68 653 99 675 q 130 697 171 710 q 211 723 256 723 q 296 723 328 711 q 359 700 380 680 q 401 660 412 631 q 423 603 423 569 z m 297 64 q 297 44 290 29 q 283 13 271 2 q 259 -8 242 -14 q 226 -20 208 -20 q 193 -20 180 -16 q 167 -12 158 -4 q 148 4 142 16 q 137 29 137 46 q 137 65 144 81 q 151 97 164 107 q 176 118 193 124 q 209 130 227 130 q 240 130 253 126 q 266 122 275 114 q 285 106 291 94 q 297 81 297 64 z"},"<":{"x_min":0,"x_max":454,"ha":454,"o":"m 428 163 q 417 153 405 140 q 392 127 376 118 l 42 238 l 26 257 l 27 263 l 30 271 l 35 288 q 36 292 37 296 q 39 300 40 303 q 40 305 40 306 q 41 308 42 309 l 44 316 l 413 449 l 428 434 q 427 428 425 420 q 422 411 420 402 q 417 392 415 384 q 412 375 411 371 l 152 278 l 417 184 z"},"'":{"x_min":0,"x_max":272,"ha":272,"o":"m 169 407 q 166 405 158 403 q 150 401 141 400 q 131 398 123 398 q 114 397 108 397 l 67 682 q 71 684 80 687 q 89 691 100 695 q 111 700 124 704 q 137 708 148 712 q 160 716 168 719 q 177 722 180 723 l 205 709 z"},"=":{"x_min":0,"x_max":454,"ha":454,"o":"m 428 221 q 427 215 424 208 q 421 200 417 192 q 414 185 411 177 q 408 170 406 166 l 42 166 l 26 182 q 27 187 30 194 q 33 202 36 209 q 40 217 43 224 q 46 231 48 236 l 413 236 z m 428 367 q 427 362 424 354 q 421 347 417 339 q 414 331 411 323 q 408 316 406 312 l 42 312 l 26 328 q 27 333 30 341 q 33 348 36 356 q 40 364 43 371 q 46 378 48 383 l 413 383 z"},"a":{"x_min":0,"x_max":500,"ha":500,"o":"m 201 71 q 210 71 221 73 q 231 75 243 81 q 256 86 271 96 q 286 106 304 122 l 304 230 q 275 225 255 220 q 235 216 221 211 q 208 206 199 201 q 190 195 184 189 q 171 176 164 162 q 156 147 156 126 q 156 110 160 99 q 165 88 172 82 q 179 76 187 73 q 195 71 201 71 z m 496 55 q 476 41 453 28 q 431 15 411 6 q 392 -4 375 -9 q 359 -15 350 -15 q 332 -15 320 6 q 307 26 305 63 q 283 41 260 26 q 238 11 218 2 q 197 -7 178 -11 q 159 -15 143 -15 q 123 -15 103 -8 q 83 0 67 13 q 51 27 42 49 q 32 70 32 98 q 32 131 44 155 q 56 178 74 196 q 85 208 101 219 q 116 229 142 240 q 167 250 206 260 q 245 269 304 278 l 304 335 q 304 351 301 364 q 298 376 291 386 q 284 395 271 400 q 259 405 241 405 q 229 405 217 401 q 206 396 197 388 q 188 380 183 369 q 178 357 179 343 q 180 340 171 335 q 163 331 150 326 q 138 322 122 317 q 107 312 93 309 q 79 306 67 304 q 56 303 52 304 l 42 330 q 54 359 79 385 q 104 410 138 428 q 171 447 211 458 q 251 469 292 469 q 325 469 350 460 q 374 451 390 435 q 406 419 414 398 q 421 376 421 352 l 421 116 q 421 96 427 87 q 432 78 441 78 q 444 78 448 79 q 452 79 457 81 q 462 82 469 85 q 476 87 485 91 z"},"L":{"x_min":0,"x_max":509,"ha":509,"o":"m 498 148 q 496 127 493 104 q 490 81 488 60 q 485 40 482 23 q 479 7 478 0 l 21 0 l 21 36 q 54 42 71 51 q 88 59 88 65 l 88 549 q 88 555 72 564 q 56 573 21 580 l 21 615 l 277 615 l 277 580 q 244 573 227 564 q 210 556 210 549 l 210 95 q 210 86 214 79 q 218 73 229 68 q 239 63 256 61 q 274 59 301 59 l 356 59 q 378 59 394 64 q 409 69 421 81 q 433 93 442 113 q 452 132 462 161 z"},"3":{"x_min":0,"x_max":506,"ha":506,"o":"m 447 186 q 447 145 431 108 q 415 72 386 44 q 356 17 315 1 q 274 -15 224 -15 q 205 -15 182 -10 q 158 -5 133 4 q 108 14 84 29 q 59 44 37 65 l 57 113 q 79 96 99 85 q 119 73 138 66 q 156 59 174 56 q 192 53 210 53 q 233 53 254 60 q 274 67 289 82 q 304 97 312 120 q 321 143 321 174 q 321 208 311 230 q 300 253 284 267 q 268 281 250 287 q 231 293 215 293 l 204 293 q 199 293 195 293 q 191 292 187 292 q 182 292 174 290 l 166 334 q 208 345 233 361 q 258 376 271 393 q 285 410 289 427 q 293 444 293 459 q 293 476 290 492 q 287 508 279 521 q 271 533 258 541 q 245 548 227 548 q 213 548 202 542 q 191 536 184 525 q 176 514 174 499 q 171 484 176 468 q 166 462 153 457 q 140 451 125 447 q 111 442 96 438 q 82 435 68 434 l 51 464 q 51 484 66 509 q 81 533 108 554 q 135 575 172 589 q 209 603 254 603 q 299 603 330 591 q 362 580 381 560 q 401 541 410 517 q 419 493 419 468 q 419 449 411 430 q 404 411 390 394 q 376 376 357 363 q 338 349 315 341 q 345 338 369 324 q 394 311 411 290 q 428 269 437 242 q 447 216 447 186 z"},";":{"x_min":0,"x_max":270,"ha":270,"o":""},"J":{"x_min":0,"x_max":334,"ha":334,"o":"m 304 580 q 271 573 254 564 q 237 556 237 549 l 237 89 q 237 36 226 -3 q 215 -42 198 -69 q 182 -97 161 -117 q 141 -136 122 -152 q 108 -163 92 -172 q 76 -182 58 -189 q 41 -196 22 -200 q 4 -204 -12 -204 q -34 -204 -55 -199 q -76 -194 -93 -187 q -109 -179 -119 -171 q -129 -163 -129 -158 q -129 -152 -119 -140 q -109 -128 -95 -116 q -82 -103 -68 -93 q -54 -82 -47 -80 q -20 -103 3 -113 q 26 -122 45 -122 q 58 -122 70 -116 q 83 -110 93 -92 q 103 -73 109 -38 q 115 -3 115 54 l 115 549 q 115 552 112 556 q 108 559 98 563 q 88 567 71 571 q 53 575 23 580 l 23 615 l 304 615 z"},"V":{"x_min":0,"x_max":665,"ha":665,"o":"m 648 580 q 615 573 596 567 q 578 561 573 547 l 389 40 q 385 29 374 21 q 363 12 349 5 q 335 -2 321 -7 q 306 -12 294 -15 l 72 547 q 66 560 52 568 q 37 576 6 580 l 6 615 l 255 615 l 255 580 q 216 577 204 570 q 191 562 196 548 l 355 140 l 500 547 q 502 555 501 560 q 499 564 492 568 q 484 572 471 574 q 458 577 438 580 l 438 615 l 648 615 z"},"\"":{"x_min":0,"x_max":469,"ha":469,"o":"m 169 407 q 166 405 158 403 q 150 401 141 400 q 131 398 123 398 q 114 397 108 397 l 67 682 q 71 684 80 687 q 89 691 100 695 q 111 700 124 704 q 137 708 148 712 q 160 716 168 719 q 177 722 180 723 l 205 709 z m 366 407 q 362 405 354 403 q 347 401 337 400 q 328 398 319 398 q 311 397 305 397 l 264 682 q 270 685 286 691 q 302 698 321 704 q 339 711 355 716 q 372 722 377 723 l 402 709 z"},"7":{"x_min":0,"x_max":506,"ha":506,"o":"m 469 570 q 446 517 424 464 q 402 410 382 358 q 361 307 343 258 q 324 209 308 166 q 292 123 280 87 q 267 51 259 25 q 250 20 237 14 q 223 8 208 2 q 193 -3 178 -7 q 163 -12 150 -15 l 126 5 q 169 80 202 143 q 235 207 263 265 q 292 323 317 380 q 342 437 369 500 l 151 500 q 144 500 136 498 q 128 497 119 489 q 110 481 101 466 q 91 450 81 421 l 47 434 q 49 445 52 467 q 55 488 58 512 q 62 535 65 556 q 69 578 72 588 l 453 588 z"},"S":{"x_min":0,"x_max":513,"ha":513,"o":"m 473 184 q 473 162 466 139 q 459 116 446 94 q 433 72 413 52 q 393 32 366 18 q 339 3 305 -6 q 271 -15 229 -15 q 212 -15 189 -11 q 167 -8 143 -2 q 119 4 96 13 q 74 22 57 33 q 54 34 53 43 q 51 51 51 64 q 50 77 50 94 q 50 110 52 126 q 53 143 55 159 q 57 175 61 188 l 95 185 q 106 156 123 132 q 139 108 159 91 q 179 74 202 65 q 225 55 250 55 q 271 55 292 62 q 312 68 328 80 q 344 92 353 110 q 363 127 363 151 q 363 181 350 202 q 336 224 315 241 q 293 258 265 271 q 238 285 209 299 q 180 312 152 327 q 125 342 103 362 q 81 381 68 407 q 55 433 55 469 q 55 492 68 520 q 81 548 108 572 q 135 597 177 613 q 220 630 279 630 q 305 630 331 626 q 356 623 378 617 q 400 611 417 603 q 434 595 442 585 q 445 583 444 576 q 442 569 439 560 q 436 551 431 540 q 426 529 420 520 q 415 510 410 502 q 404 494 400 491 l 368 494 q 357 517 344 532 q 330 547 314 557 q 299 566 283 570 q 268 574 254 574 q 229 574 212 567 q 195 561 184 550 q 172 540 167 526 q 162 513 162 499 q 162 476 176 458 q 189 440 211 425 q 232 410 260 396 q 288 382 317 368 q 347 353 375 336 q 402 319 424 297 q 446 276 459 248 q 473 220 473 184 z"},"}":{"x_min":0,"x_max":350,"ha":350,"o":"m 309 311 q 254 295 229 269 q 204 243 204 206 q 204 179 207 159 q 209 140 213 122 q 217 104 220 84 q 223 64 223 37 q 223 3 208 -24 q 194 -52 168 -75 q 143 -99 108 -118 q 73 -138 32 -154 l 12 -116 q 50 -92 74 -60 q 98 -28 98 9 q 98 34 95 54 q 92 74 88 93 q 84 111 82 131 q 79 151 79 177 q 79 197 86 217 q 93 236 105 254 q 118 271 136 285 q 153 299 174 308 q 125 317 102 351 q 79 385 79 439 q 79 466 82 488 q 84 511 88 531 q 92 552 95 572 q 98 592 98 613 q 98 634 95 650 q 92 667 83 681 q 74 695 58 709 q 42 722 17 736 l 36 781 q 81 765 115 747 q 150 730 174 709 q 198 688 211 661 q 223 635 223 600 q 223 574 220 553 q 217 532 213 512 q 209 492 207 470 q 204 449 204 421 q 204 382 221 365 q 238 349 269 349 l 278 349 q 282 349 284 349 q 287 349 290 350 q 293 350 300 352 z"},"Z":{"x_min":0,"x_max":545,"ha":545,"o":"m 510 172 q 509 157 508 133 q 507 109 507 85 q 506 60 505 37 q 504 14 504 0 l 43 0 l 25 26 l 354 552 l 163 552 q 155 552 146 543 q 136 535 126 520 q 117 505 108 484 q 100 463 94 438 l 52 447 l 70 623 q 83 620 94 618 q 105 617 115 616 q 126 615 137 615 l 489 615 l 505 591 l 179 63 l 401 63 q 412 63 420 71 q 428 78 436 93 q 443 108 451 131 q 459 153 468 183 z"},"x":{"x_min":0,"x_max":521,"ha":521,"o":"m 274 0 l 274 36 q 287 37 297 38 q 307 40 312 44 q 317 48 317 56 q 316 63 307 77 l 235 176 l 158 77 q 148 64 148 56 q 148 49 155 45 q 162 41 172 39 q 183 37 195 36 l 195 0 l 6 0 l 6 36 q 24 39 37 43 q 50 47 59 53 q 68 59 75 66 q 81 72 87 80 l 200 225 l 91 376 q 84 385 78 392 q 72 399 63 405 q 55 410 42 414 q 30 417 12 418 l 12 454 l 253 454 l 253 418 q 238 417 229 415 q 220 413 216 408 q 213 404 215 396 q 218 389 226 377 l 281 301 l 340 377 q 349 389 352 396 q 354 404 351 408 q 348 413 339 415 q 330 417 314 418 l 314 454 l 500 454 l 500 418 q 480 417 467 414 q 453 410 443 405 q 434 399 426 392 q 419 385 412 376 l 316 252 l 440 80 q 445 72 452 65 q 458 59 467 53 q 475 47 487 42 q 499 38 515 36 l 515 0 z"},")":{"x_min":0,"x_max":332,"ha":332,"o":"m 281 323 q 281 243 264 171 q 247 99 216 37 q 185 -24 140 -73 q 95 -121 39 -154 l 13 -118 q 42 -88 68 -47 q 93 -6 112 47 q 131 100 143 166 q 154 231 154 310 q 154 380 145 445 q 136 509 118 565 q 100 620 74 666 q 47 711 13 744 l 39 781 q 100 749 145 702 q 190 656 221 597 q 251 539 266 470 q 281 401 281 323 z"},"&":{"x_min":0,"x_max":693,"ha":693,"o":"m 243 552 q 243 526 250 499 q 256 472 269 443 q 292 457 307 473 q 323 489 332 506 q 341 522 345 539 q 349 556 349 572 q 349 606 333 625 q 317 645 294 645 q 281 645 271 638 q 262 630 255 618 q 249 605 246 588 q 243 571 243 552 z m 280 56 q 308 56 333 64 q 359 72 382 86 q 359 108 335 134 q 312 160 289 188 q 266 216 244 247 q 223 277 204 308 q 178 277 168 246 q 159 216 159 182 q 159 148 169 124 q 180 100 198 84 q 215 69 237 62 q 258 56 280 56 z m 690 365 q 685 358 677 349 q 670 340 663 331 q 655 323 648 315 q 641 308 635 304 q 617 312 596 319 q 575 326 558 327 q 568 313 571 298 q 574 284 574 265 q 574 233 559 196 q 544 160 518 125 q 528 115 538 107 q 547 99 557 91 q 582 70 609 64 q 636 59 661 65 l 668 29 q 647 20 624 12 q 601 4 581 -2 q 560 -8 545 -11 q 530 -15 524 -15 q 512 -15 487 0 q 462 16 430 42 q 392 16 346 1 q 301 -15 250 -15 q 199 -15 159 -3 q 118 9 90 33 q 62 56 47 91 q 32 126 32 172 q 32 224 64 275 q 97 327 167 379 q 151 416 142 452 q 133 489 133 524 q 133 563 148 597 q 163 631 189 656 q 215 680 250 694 q 285 708 324 708 q 361 708 388 698 q 414 688 431 671 q 448 655 456 633 q 464 611 464 588 q 464 562 451 536 q 438 510 417 485 q 396 460 369 437 q 342 415 313 396 l 298 387 q 314 359 334 331 q 354 303 376 276 q 397 249 420 223 q 443 198 466 175 q 476 192 481 210 q 486 228 486 245 q 486 266 479 282 q 473 298 463 310 q 452 321 439 327 q 425 333 411 333 l 397 351 q 399 354 405 359 q 410 364 416 370 q 422 375 429 380 q 436 385 440 387 l 675 387 z"},"_":{"x_min":0,"x_max":483,"ha":483,"o":"m 458 -79 q 456 -84 453 -92 q 450 -100 447 -108 q 443 -116 440 -123 q 437 -130 435 -134 l 42 -134 l 26 -119 q 27 -114 30 -106 q 33 -99 36 -91 q 40 -83 43 -76 q 46 -68 48 -63 l 442 -63 z"},"v":{"x_min":0,"x_max":508,"ha":508,"o":"m 501 418 q 487 415 478 412 q 470 409 465 406 q 459 402 457 397 q 454 392 451 385 l 313 40 q 309 29 300 21 q 291 12 279 5 q 267 -2 254 -7 q 241 -12 229 -15 l 57 385 q 51 398 41 406 q 30 413 6 418 l 6 454 l 228 454 l 228 418 q 208 416 198 413 q 187 411 181 407 q 176 403 176 398 q 176 393 180 385 l 285 140 l 383 385 q 386 393 386 398 q 387 403 383 406 q 379 410 370 413 q 360 416 344 418 l 344 454 l 501 454 z"},"O":{"x_min":0,"x_max":622,"ha":622,"o":"m 462 307 q 462 357 450 404 q 438 451 416 487 q 394 523 363 545 q 333 566 295 566 q 260 566 233 549 q 206 532 187 499 q 169 467 160 420 q 150 373 150 313 q 150 258 163 210 q 176 163 198 127 q 221 92 250 72 q 280 51 313 51 q 346 51 373 67 q 400 83 420 115 q 439 146 451 195 q 462 243 462 307 z m 585 316 q 585 271 574 230 q 563 188 544 152 q 525 115 498 84 q 471 54 438 32 q 406 10 369 -2 q 332 -15 292 -15 q 230 -15 181 11 q 132 37 98 81 q 63 124 45 181 q 27 237 27 299 q 27 365 49 425 q 70 485 109 531 q 148 576 202 603 q 256 630 320 630 q 385 630 434 603 q 483 577 517 533 q 551 489 568 432 q 585 375 585 316 z"},"(":{"x_min":0,"x_max":332,"ha":332,"o":"m 293 -154 q 232 -122 187 -75 q 142 -29 112 30 q 82 88 67 157 q 52 227 52 304 q 52 384 69 457 q 85 529 117 590 q 148 651 193 699 q 238 748 293 781 l 320 745 q 291 715 265 674 q 239 633 220 580 q 201 527 190 462 q 179 396 179 318 q 179 247 188 182 q 197 118 215 63 q 232 7 259 -38 q 285 -83 320 -117 z"},"C":{"x_min":0,"x_max":558,"ha":558,"o":"m 523 103 q 492 71 461 49 q 431 26 401 12 q 372 -2 343 -8 q 314 -15 286 -15 q 237 -15 190 6 q 144 26 107 65 q 71 104 49 159 q 27 215 27 286 q 27 364 51 428 q 75 491 117 536 q 159 582 215 606 q 272 630 337 630 q 364 630 390 626 q 416 622 439 615 q 462 609 482 600 q 501 591 514 581 q 516 580 513 572 q 511 565 507 555 q 502 544 496 532 q 490 521 484 510 q 478 499 472 490 q 466 481 462 477 l 431 484 q 406 527 374 546 q 342 565 304 565 q 287 565 269 560 q 251 555 234 542 q 217 530 202 510 q 187 491 175 462 q 164 433 157 394 q 150 355 150 304 q 150 242 167 197 q 183 152 209 123 q 235 94 268 80 q 300 66 333 66 q 346 66 364 69 q 381 72 403 80 q 424 88 448 101 q 472 115 498 136 q 500 134 504 129 q 508 125 511 119 q 515 114 518 109 q 521 104 523 103 z"},"W":{"x_min":0,"x_max":850,"ha":850,"o":"m 846 580 q 824 575 810 571 q 796 567 788 564 q 779 560 776 557 q 772 553 771 549 l 660 29 q 657 19 649 11 q 640 3 629 -2 q 618 -7 607 -10 q 596 -13 588 -15 l 422 428 l 282 29 q 278 19 270 11 q 261 4 250 -1 q 238 -6 226 -10 q 214 -13 204 -15 l 77 545 q 75 558 60 565 q 44 573 10 580 l 10 615 l 249 615 l 249 580 q 225 577 211 573 q 198 570 192 565 q 187 561 186 556 q 185 551 186 545 l 270 188 l 412 615 l 461 615 l 625 188 l 703 549 q 704 555 699 560 q 693 564 683 567 q 673 571 659 574 q 645 577 628 580 l 628 615 l 846 615 z"},"A":{"x_min":0,"x_max":628,"ha":628,"o":"m 365 269 l 284 496 l 211 269 z m 191 210 l 145 69 q 140 54 156 47 q 173 40 213 36 l 213 0 l 0 0 l 0 36 q 33 42 51 48 q 69 54 74 69 l 244 589 q 256 599 269 607 q 283 616 297 622 q 312 629 326 634 q 340 639 353 643 l 558 69 q 560 62 564 57 q 568 51 575 47 q 582 43 592 41 q 603 38 618 36 l 618 0 l 375 0 l 375 36 q 414 38 427 45 q 440 53 435 69 l 385 210 z"},"f":{"x_min":0,"x_max":340,"ha":340,"o":"m 435 710 q 435 705 430 697 q 426 689 418 681 q 411 672 402 664 q 393 655 384 647 q 375 640 367 635 q 359 629 354 626 q 331 656 309 668 q 287 681 271 681 q 259 681 247 673 q 236 666 227 645 q 218 625 213 588 q 208 552 208 496 l 208 454 l 329 454 l 347 437 q 343 428 336 419 q 330 410 323 402 q 316 393 310 386 q 304 379 299 376 q 288 382 267 387 q 247 393 208 393 l 208 64 q 208 62 212 59 q 217 56 228 52 q 240 49 259 45 q 277 41 306 36 l 306 0 l 26 0 l 26 36 q 60 42 75 50 q 90 59 90 64 l 90 393 l 32 393 l 19 411 l 57 454 l 90 454 l 90 469 q 90 509 96 542 q 102 575 112 601 q 123 628 138 650 q 153 671 173 690 q 191 708 210 720 q 229 732 248 741 q 267 749 285 753 q 303 757 317 757 q 339 757 361 751 q 382 745 398 738 q 415 730 425 722 q 435 714 435 710 z"},"Q":{"x_min":0,"x_max":622,"ha":622,"o":"m 462 307 q 462 357 450 404 q 438 451 416 487 q 394 523 363 545 q 333 566 295 566 q 260 566 233 549 q 206 532 187 499 q 169 467 160 420 q 150 373 150 313 q 150 258 163 210 q 176 163 198 127 q 221 92 250 72 q 280 51 313 51 q 346 51 373 67 q 400 83 420 115 q 439 146 451 195 q 462 243 462 307 z m 692 -61 q 680 -83 667 -101 q 653 -119 640 -132 q 627 -145 615 -153 q 604 -160 597 -160 q 574 -160 551 -153 q 528 -145 505 -133 q 482 -120 459 -104 q 436 -88 413 -72 q 390 -56 366 -40 q 343 -24 320 -13 q 313 -14 306 -14 q 299 -15 292 -15 q 231 -15 183 11 q 134 37 99 80 q 64 123 46 180 q 27 236 27 299 q 27 365 49 425 q 70 485 109 531 q 148 576 202 603 q 256 630 320 630 q 385 630 434 603 q 483 577 517 533 q 551 489 568 432 q 585 375 585 316 q 585 267 572 220 q 559 174 535 134 q 511 95 478 63 q 445 32 406 13 q 434 3 459 -10 q 484 -23 508 -35 q 532 -47 555 -55 q 578 -63 600 -63 q 605 -63 612 -62 q 618 -61 625 -57 q 633 -54 643 -47 q 653 -40 668 -29 z"},"w":{"x_min":0,"x_max":717,"ha":717,"o":"m 710 418 q 697 415 688 412 q 680 409 674 406 q 669 402 666 398 q 664 394 662 388 l 554 29 q 551 18 542 10 q 533 3 522 -2 q 511 -7 500 -10 q 490 -13 483 -15 l 359 271 l 260 29 q 256 18 247 10 q 238 2 228 -3 q 218 -8 208 -10 q 197 -13 191 -15 l 60 388 q 57 397 44 405 q 31 413 6 418 l 6 454 l 228 454 l 228 418 q 207 416 195 413 q 183 410 178 406 q 173 401 173 397 q 172 393 174 388 l 247 158 l 364 454 l 401 454 l 524 158 l 594 388 q 596 394 596 398 q 596 402 592 406 q 587 410 578 413 q 568 416 552 418 l 552 454 l 710 454 z"},"-":{"x_min":0,"x_max":355,"ha":355,"o":""},"E":{"x_min":0,"x_max":525,"ha":525,"o":"m 502 148 q 500 127 498 104 q 496 81 493 60 q 490 40 487 23 q 484 7 482 0 l 21 0 l 21 36 q 54 42 71 51 q 88 59 88 65 l 88 549 q 88 555 72 564 q 56 573 21 580 l 21 615 l 451 615 l 471 600 q 470 587 468 568 q 466 549 463 529 q 460 509 457 491 q 454 473 451 464 l 414 464 q 412 509 402 533 q 392 557 374 557 l 210 557 l 210 359 l 404 359 l 420 342 q 417 335 411 326 q 405 317 399 308 q 393 299 387 292 q 381 284 375 280 q 368 288 360 292 q 351 297 340 301 q 329 304 314 306 q 299 307 279 307 l 210 307 l 210 90 q 210 83 213 77 q 217 71 228 67 q 238 63 258 61 q 277 59 310 59 l 358 59 q 380 59 396 64 q 412 69 424 81 q 437 93 447 113 q 457 132 467 161 z"},"s":{"x_min":0,"x_max":419,"ha":419,"o":"m 382 138 q 382 104 371 79 q 361 54 344 37 q 327 20 306 10 q 285 0 263 -6 q 242 -11 222 -13 q 202 -15 188 -15 q 172 -15 154 -12 q 136 -10 117 -6 q 98 -1 79 5 q 60 12 44 21 q 41 22 39 38 q 37 54 38 76 q 38 98 40 122 q 42 146 47 164 l 87 159 q 92 133 103 112 q 114 91 130 76 q 146 62 165 53 q 184 45 205 45 q 240 45 257 58 q 274 71 274 100 q 274 120 264 135 q 254 151 238 164 q 221 177 200 189 q 179 200 157 212 q 136 222 116 235 q 96 247 80 262 q 63 278 53 296 q 43 315 43 338 q 43 369 58 393 q 73 417 97 434 q 122 451 153 460 q 184 469 217 469 q 238 469 260 466 q 281 463 300 458 q 320 454 336 447 q 353 440 364 431 q 367 429 365 415 q 364 401 359 384 q 354 366 348 350 q 342 333 336 325 l 302 329 q 290 372 267 395 q 244 417 212 417 q 183 417 167 404 q 150 391 150 370 q 150 354 158 342 q 166 330 180 319 q 195 309 216 298 q 236 287 262 273 q 283 262 305 250 q 326 238 343 222 q 360 206 371 186 q 382 166 382 138 z"},">":{"x_min":0,"x_max":454,"ha":454,"o":"m 428 310 q 427 304 425 296 q 422 288 420 280 q 417 272 414 264 q 412 256 410 250 l 42 118 l 26 134 q 27 139 30 147 q 32 156 34 166 q 37 175 40 183 q 42 192 44 196 l 301 289 l 38 383 l 26 405 q 37 415 51 427 q 64 440 78 449 l 413 330 z"},"l":{"x_min":0,"x_max":300,"ha":300,"o":"m 26 0 l 26 36 q 47 39 60 43 q 74 46 82 50 q 89 54 92 58 q 95 62 95 65 l 95 618 q 95 640 93 652 q 90 665 83 671 q 77 677 64 679 q 51 681 31 684 l 31 718 q 55 721 76 725 q 97 729 116 733 q 135 737 154 743 q 172 749 191 757 l 212 737 l 212 65 q 212 62 216 58 q 219 54 227 50 q 235 46 249 43 q 262 39 282 36 l 282 0 z"},"8":{"x_min":0,"x_max":506,"ha":506,"o":"m 175 464 q 175 445 183 431 q 191 417 206 406 q 220 395 239 386 q 258 376 280 367 q 322 412 322 458 q 322 483 315 500 q 309 518 298 528 q 287 538 272 542 q 258 546 242 546 q 226 546 213 540 q 201 533 192 521 q 184 510 179 495 q 175 480 175 464 z m 342 151 q 342 179 333 200 q 323 221 307 236 q 292 252 271 263 q 250 275 228 285 q 212 270 200 255 q 188 240 180 224 q 172 208 168 191 q 165 174 165 154 q 165 128 172 108 q 180 88 193 74 q 207 60 224 53 q 241 45 259 45 q 279 45 294 54 q 310 62 321 77 q 331 91 336 110 q 342 129 342 151 z m 467 172 q 467 134 450 100 q 433 66 402 41 q 372 15 331 0 q 290 -15 242 -15 q 192 -15 154 -2 q 116 11 91 32 q 65 54 52 81 q 39 109 39 139 q 39 165 48 188 q 58 212 76 234 q 94 255 118 274 q 143 293 172 309 q 150 319 131 331 q 111 342 96 358 q 81 375 72 396 q 63 417 63 447 q 63 480 79 509 q 94 538 121 559 q 147 580 183 591 q 219 603 260 603 q 306 603 341 593 q 375 583 398 566 q 420 549 432 525 q 443 501 443 473 q 443 454 435 437 q 427 419 413 403 q 398 387 379 372 q 360 357 337 342 q 363 331 386 316 q 410 301 428 281 q 446 261 457 234 q 467 208 467 172 z"},"\\":{"x_min":0,"x_max":469,"ha":469,"o":"m 429 -164 q 423 -162 412 -158 q 401 -155 390 -151 q 379 -147 369 -143 q 359 -139 354 -135 l 20 767 l 42 781 q 49 779 59 776 q 68 773 79 770 q 89 766 98 762 q 108 758 115 754 l 449 -148 z"},"e":{"x_min":0,"x_max":484,"ha":484,"o":"m 250 410 q 227 410 210 401 q 193 393 182 376 q 170 359 164 336 q 157 312 154 283 l 317 283 q 328 283 332 287 q 335 291 335 301 q 335 315 332 334 q 328 353 318 370 q 308 387 291 398 q 274 410 250 410 z m 452 269 q 448 264 439 258 q 431 252 421 247 q 412 241 402 236 q 392 231 384 229 l 153 229 q 154 193 162 164 q 171 134 187 113 q 202 91 224 79 q 247 67 275 67 q 291 67 305 69 q 319 71 336 77 q 353 83 374 95 q 395 106 424 126 q 427 125 431 121 q 435 116 439 111 q 442 106 445 102 q 448 97 449 95 q 416 61 389 40 q 362 18 337 6 q 312 -6 288 -10 q 264 -15 234 -15 q 193 -15 156 2 q 119 19 92 49 q 64 79 48 122 q 32 164 32 216 q 32 282 57 334 q 82 386 132 423 q 145 432 161 441 q 177 449 194 455 q 211 461 230 465 q 249 469 267 469 q 315 469 350 452 q 385 436 407 408 q 430 380 441 344 q 452 308 452 269 z"},"b":{"x_min":0,"x_max":537,"ha":537,"o":"m 393 203 q 393 252 384 286 q 375 321 361 343 q 346 365 326 375 q 307 385 284 385 q 267 385 240 373 q 214 361 178 331 l 178 106 q 217 85 247 76 q 277 67 292 67 q 317 67 336 78 q 355 89 368 107 q 380 125 386 150 q 393 175 393 203 z m 500 248 q 500 219 490 189 q 480 158 462 129 q 444 100 419 74 q 395 48 366 28 q 338 8 306 -3 q 275 -15 244 -15 q 230 -15 210 -10 q 189 -5 165 3 q 141 11 114 22 q 87 34 61 47 l 61 618 q 61 641 59 653 q 58 665 51 671 q 45 677 33 679 q 21 681 1 684 l 1 718 q 24 722 45 725 q 65 729 84 734 q 103 738 121 744 q 139 750 157 757 q 159 755 162 752 q 166 749 169 745 q 174 741 178 737 l 178 392 q 203 413 226 427 q 250 442 272 451 q 293 460 312 465 q 330 469 344 469 q 380 469 409 453 q 438 438 458 409 q 479 380 490 339 q 500 298 500 248 z"},"%":{"x_min":0,"x_max":728,"ha":728,"o":"m 602 142 q 602 213 585 247 q 568 281 542 281 q 518 281 504 254 q 490 227 490 163 q 490 90 506 56 q 521 21 550 21 q 576 21 589 49 q 602 77 602 142 z m 702 151 q 702 117 690 87 q 678 57 657 34 q 636 11 606 -2 q 577 -15 542 -15 q 507 -15 479 -2 q 451 11 431 34 q 411 57 401 87 q 390 117 390 151 q 390 186 401 216 q 413 246 434 269 q 455 292 484 305 q 514 318 550 318 q 586 318 615 305 q 643 292 662 269 q 682 247 692 216 q 702 186 702 151 z m 183 3 q 177 0 168 -2 q 158 -5 147 -7 q 137 -9 126 -11 q 116 -14 110 -15 l 98 0 l 544 585 q 549 588 558 591 q 568 593 579 596 q 589 598 599 600 q 609 602 615 604 l 627 589 z m 238 428 q 238 464 234 490 q 229 517 221 534 q 213 551 202 559 q 191 568 178 568 q 154 568 140 541 q 126 513 126 449 q 126 377 142 343 q 157 309 186 309 q 211 309 225 336 q 238 364 238 428 z m 338 438 q 338 404 326 374 q 314 344 293 321 q 272 298 243 285 q 213 272 178 272 q 143 272 115 285 q 87 298 67 321 q 47 344 37 374 q 26 404 26 438 q 26 472 38 502 q 49 533 70 555 q 90 578 120 591 q 149 604 186 604 q 222 604 250 591 q 279 578 298 556 q 318 533 328 503 q 338 472 338 438 z"},"m":{"x_min":0,"x_max":844,"ha":844,"o":"m 590 0 l 590 36 q 608 40 619 44 q 630 48 636 52 q 643 56 645 59 q 647 62 647 65 l 647 294 q 647 324 644 342 q 641 360 635 370 q 628 379 619 382 q 609 385 596 385 q 574 385 545 370 q 517 354 485 324 l 485 65 q 485 62 487 59 q 490 56 496 52 q 503 49 515 45 q 527 41 546 36 l 546 0 l 311 0 l 311 36 q 328 40 339 44 q 351 48 357 52 q 363 56 365 59 q 368 62 368 65 l 368 294 q 368 324 365 342 q 363 360 357 370 q 352 379 343 382 q 333 385 320 385 q 298 385 270 370 q 241 355 205 324 l 205 65 q 205 58 220 50 q 234 42 266 36 l 266 0 l 23 0 l 23 36 q 56 44 72 51 q 88 57 88 65 l 88 336 q 88 356 87 367 q 85 378 79 385 q 73 391 60 394 q 47 396 23 399 l 23 434 q 49 437 69 440 q 90 443 108 448 q 126 452 143 457 q 160 462 177 469 l 198 448 l 203 388 q 230 412 254 427 q 277 443 297 452 q 318 461 336 465 q 355 469 373 469 q 396 469 414 463 q 432 457 445 447 q 458 437 465 424 q 473 410 476 395 l 478 388 q 505 412 528 427 q 552 443 573 452 q 593 461 612 465 q 630 469 648 469 q 672 469 693 462 q 714 456 730 441 q 746 426 755 402 q 764 378 764 344 l 764 65 q 764 59 779 52 q 794 45 833 36 l 833 0 z"},"#":{"x_min":0,"x_max":506,"ha":506,"o":"m 421 477 l 497 477 l 509 464 q 508 459 505 451 q 502 442 498 434 q 495 425 491 417 q 488 410 486 406 l 401 406 l 370 295 l 445 295 l 456 282 q 455 277 452 269 q 449 261 446 253 q 442 244 439 237 q 437 229 435 225 l 350 225 l 309 83 q 305 80 297 77 q 290 74 281 71 q 273 69 264 66 q 256 64 250 62 l 237 72 l 280 225 l 195 225 l 155 83 q 150 80 143 77 q 136 74 127 71 l 111 66 q 103 64 96 62 l 83 72 l 127 225 l 46 225 l 35 237 q 36 242 39 250 q 42 257 45 266 q 48 274 52 282 q 55 291 57 295 l 147 295 l 179 406 l 99 406 l 87 417 q 88 423 91 431 q 94 439 97 448 q 101 456 104 464 q 107 472 109 477 l 199 477 l 237 611 q 243 615 250 617 q 258 620 266 622 q 274 625 282 626 q 290 628 295 631 l 309 620 l 268 477 l 353 477 l 391 611 q 396 615 404 617 q 411 620 419 622 q 428 625 436 626 q 443 628 449 631 l 462 620 z m 216 295 l 301 295 l 332 406 l 248 406 z"},",":{"x_min":0,"x_max":270,"ha":270,"o":"m 234 34 q 234 8 223 -22 q 212 -53 193 -83 q 173 -113 147 -140 q 122 -167 92 -186 l 59 -161 q 86 -129 102 -95 q 118 -61 118 -19 q 118 -8 113 3 q 108 14 100 22 q 91 30 79 34 q 66 39 51 38 l 43 75 q 46 79 55 84 q 64 90 78 95 q 91 101 107 107 q 123 112 138 117 q 153 122 166 124 q 179 126 188 126 q 211 115 223 94 q 234 73 234 34 z"},"n":{"x_min":0,"x_max":581,"ha":581,"o":"m 324 0 l 324 36 q 359 45 374 52 q 388 59 388 65 l 388 287 q 388 314 385 332 q 383 350 377 360 q 371 371 361 375 q 352 380 337 380 q 325 380 312 377 q 299 374 283 366 q 267 358 248 345 q 229 332 205 312 l 205 65 q 205 58 222 50 q 238 42 270 36 l 270 0 l 23 0 l 23 36 q 56 44 72 51 q 88 57 88 65 l 88 336 q 88 355 87 367 q 86 378 81 384 q 75 391 62 394 q 48 396 23 399 l 23 434 q 47 436 67 439 q 87 443 106 447 q 125 451 142 457 q 160 462 177 469 l 198 448 l 203 378 q 260 427 310 448 q 359 469 397 469 q 418 469 438 462 q 458 456 472 441 q 487 426 496 402 q 505 378 505 344 l 505 65 q 505 62 508 59 q 511 56 519 52 q 526 49 539 45 q 551 41 570 36 l 570 0 z"},"h":{"x_min":0,"x_max":581,"ha":581,"o":"m 324 0 l 324 36 q 359 45 374 52 q 388 59 388 65 l 388 280 q 388 310 385 329 q 382 348 375 359 q 369 371 358 375 q 348 380 333 380 q 305 380 275 362 q 245 345 205 312 l 205 65 q 205 58 222 50 q 238 42 270 36 l 270 0 l 23 0 l 23 36 q 56 44 72 51 q 88 57 88 65 l 88 619 q 88 640 87 651 q 85 663 79 669 q 73 675 60 678 q 47 681 23 684 l 23 718 q 51 722 73 726 q 94 729 113 734 q 131 739 148 744 q 166 750 184 757 l 205 737 l 205 382 q 261 428 310 448 q 359 469 397 469 q 418 469 438 462 q 458 456 472 441 q 487 426 496 402 q 505 378 505 344 l 505 65 q 505 62 508 59 q 511 56 519 52 q 526 49 539 45 q 551 41 570 36 l 570 0 z"},"z":{"x_min":0,"x_max":468,"ha":468,"o":"m 431 162 q 431 151 430 137 q 430 123 430 106 q 430 90 429 74 q 429 58 428 43 q 427 28 427 17 q 426 6 425 0 l 42 0 l 30 22 l 288 396 l 161 396 q 140 396 121 371 q 102 347 89 293 l 55 303 l 67 462 q 78 459 86 457 q 95 456 105 455 q 114 454 125 454 l 426 454 l 437 433 l 178 59 l 345 59 q 354 59 361 66 q 367 74 373 88 q 378 103 384 123 q 390 144 396 170 z"},"B":{"x_min":0,"x_max":601,"ha":601,"o":"m 551 174 q 551 132 534 99 q 517 65 484 42 q 451 19 405 6 q 358 -7 299 -7 q 288 -7 272 -7 q 256 -6 238 -6 q 219 -5 198 -5 q 178 -4 158 -3 q 112 -2 60 0 l 21 0 l 21 36 q 54 42 71 51 q 88 59 88 65 l 88 569 q 69 567 52 564 q 35 562 21 560 l 15 601 q 37 606 66 611 q 96 616 129 620 q 162 625 196 627 q 229 630 258 630 q 314 630 359 621 q 403 612 434 595 q 464 578 481 553 q 497 529 497 498 q 497 445 469 408 q 440 370 386 353 q 422 347 453 331 q 483 315 505 291 q 527 268 539 238 q 551 208 551 174 z m 276 312 q 253 312 239 310 q 224 308 210 306 l 210 62 q 210 59 212 56 q 227 50 244 48 q 261 45 281 45 q 352 45 387 77 q 423 109 423 165 q 423 191 416 218 q 409 244 392 265 q 375 286 347 299 q 318 312 276 312 z m 228 578 l 219 578 q 215 578 210 578 l 210 361 l 219 361 q 268 361 298 371 q 328 381 345 397 q 362 413 368 433 q 374 453 374 474 q 374 499 366 518 q 359 537 342 551 q 325 564 297 571 q 269 578 228 578 z"},"K":{"x_min":0,"x_max":619,"ha":619,"o":"m 21 0 l 21 36 q 54 42 71 51 q 88 59 88 65 l 88 549 q 88 555 72 564 q 56 573 21 580 l 21 615 l 277 615 l 277 580 q 244 573 227 564 q 210 556 210 549 l 210 322 l 392 536 q 403 549 407 557 q 412 565 409 569 q 407 574 396 576 q 385 578 366 580 l 366 615 l 586 615 l 586 580 q 570 578 559 576 q 548 574 540 571 q 532 567 525 562 q 518 557 510 549 l 301 330 l 536 81 q 544 72 552 67 q 561 62 570 61 q 580 59 590 59 q 601 60 614 61 l 617 25 q 603 21 585 15 q 568 10 550 5 q 533 0 517 -3 q 500 -7 489 -7 q 475 -7 464 -2 q 453 2 443 14 l 210 305 l 210 65 q 210 60 226 51 q 242 42 277 36 l 277 0 z"},"R":{"x_min":0,"x_max":605,"ha":605,"o":"m 21 0 l 21 36 q 54 42 71 51 q 88 59 88 65 l 88 565 q 70 562 53 560 q 37 558 21 556 l 15 601 q 66 612 127 621 q 188 630 258 630 q 325 630 371 619 q 418 607 448 587 q 477 567 490 540 q 504 513 504 482 q 504 448 494 420 q 484 392 466 369 q 448 347 423 330 q 398 313 368 303 l 521 90 q 529 80 536 73 q 543 67 552 64 q 561 61 572 60 q 583 60 600 61 l 607 25 q 591 20 571 14 q 551 9 531 4 q 512 -1 495 -4 q 478 -7 469 -7 q 455 -7 441 1 q 428 9 421 20 l 281 286 q 276 286 271 286 l 262 286 q 249 286 236 287 q 224 288 210 291 l 210 65 q 210 60 226 51 q 242 42 277 36 l 277 0 z m 237 578 q 230 578 224 578 q 217 578 210 577 l 210 345 q 223 342 233 342 q 243 341 253 341 q 319 341 350 375 q 381 408 381 467 q 381 489 374 510 q 367 530 351 545 q 334 561 307 569 q 279 578 237 578 z"},"T":{"x_min":0,"x_max":580,"ha":580,"o":"m 146 0 l 146 36 q 169 40 184 45 q 198 50 207 54 q 216 59 219 63 q 223 67 223 71 l 223 557 l 99 557 q 91 557 85 552 q 78 546 71 534 q 64 522 56 502 q 48 483 37 455 l 1 468 q 2 482 5 502 q 7 522 10 543 q 13 564 16 583 q 19 603 21 615 l 543 615 l 562 600 q 562 587 560 569 q 558 552 555 532 q 553 513 550 493 q 546 474 543 459 l 507 459 q 502 481 499 500 q 496 518 492 531 q 488 543 482 550 q 476 557 465 557 l 345 557 l 345 71 q 345 68 348 64 q 352 60 360 55 q 369 50 384 45 q 399 40 421 36 l 421 0 z"},"P":{"x_min":0,"x_max":567,"ha":567,"o":"m 21 0 l 21 36 q 54 42 71 51 q 88 59 88 65 l 88 565 q 69 563 52 561 q 36 558 21 556 l 15 601 q 41 607 73 612 q 105 618 140 622 q 175 625 211 628 q 246 630 278 630 q 335 630 382 619 q 428 607 461 585 q 495 563 513 531 q 531 499 531 457 q 531 423 521 395 q 512 367 496 344 q 480 322 460 305 q 439 288 416 276 q 393 265 369 260 q 345 254 324 254 q 301 254 280 258 q 258 261 242 269 l 227 320 q 247 311 262 308 q 277 305 294 305 q 315 305 336 313 q 356 320 372 336 q 388 353 398 377 q 408 402 408 437 q 408 472 396 498 q 385 524 364 542 q 343 560 314 569 q 286 578 250 578 q 241 578 231 578 q 221 578 210 577 l 210 65 q 210 62 213 59 q 216 56 225 52 q 234 48 250 44 q 267 40 292 36 l 292 0 z"},"|":{"x_min":0,"x_max":229,"ha":229,"o":"m 164 -169 q 159 -173 151 -177 q 143 -181 134 -185 q 125 -189 116 -192 q 107 -196 102 -198 l 81 -183 l 81 788 q 94 796 111 804 q 128 812 143 815 l 164 801 z"},"t":{"x_min":0,"x_max":370,"ha":370,"o":"m 359 76 q 294 29 250 7 q 205 -15 179 -15 q 158 -15 139 -7 q 120 1 106 18 q 92 35 84 60 q 76 85 76 119 l 76 393 l 17 393 l 2 411 l 41 454 l 76 454 l 76 556 l 174 629 l 193 613 l 193 454 l 342 454 l 359 437 q 355 428 348 419 q 342 410 335 402 q 328 393 322 386 q 315 379 310 376 q 304 379 295 382 q 286 385 275 387 q 264 390 251 392 q 239 393 226 393 l 193 393 l 193 165 q 193 140 196 122 q 199 105 204 94 q 210 84 218 79 q 225 75 234 75 q 243 75 253 76 q 262 78 274 82 q 287 86 302 93 q 317 100 338 111 z"},"M":{"x_min":0,"x_max":847,"ha":847,"o":"m 797 580 q 785 580 769 576 q 752 573 735 566 l 740 65 q 740 60 758 51 q 775 42 811 36 l 811 0 l 556 0 l 556 36 q 589 42 608 51 q 627 59 627 65 l 624 462 l 417 0 l 371 0 l 167 461 l 164 65 q 164 60 180 51 q 196 42 231 36 l 231 0 l 26 0 l 26 36 q 60 42 76 51 q 93 59 93 65 l 98 562 q 81 572 63 576 q 45 580 31 580 l 31 615 l 200 615 q 205 615 208 614 q 212 612 216 608 q 220 604 224 595 q 229 587 234 574 l 414 167 l 597 574 q 604 589 608 597 q 612 605 616 609 q 620 613 624 614 q 627 615 632 615 l 797 615 z"},"g":{"x_min":0,"x_max":517,"ha":517,"o":"m 326 293 q 326 318 320 340 q 313 361 300 377 q 288 394 269 403 q 250 413 225 413 q 213 413 200 407 q 188 401 177 390 q 167 379 160 362 q 154 345 154 322 q 154 297 160 276 q 166 254 178 238 q 190 222 209 212 q 229 203 255 203 q 269 203 282 208 q 295 214 305 225 q 314 236 320 253 q 326 270 326 293 z m 271 -21 q 248 -18 228 -14 q 207 -10 189 -6 q 167 -21 154 -34 q 141 -46 134 -56 q 128 -66 126 -74 q 125 -82 125 -89 q 125 -105 136 -120 q 148 -135 169 -146 q 190 -158 219 -164 q 248 -171 281 -171 q 310 -171 331 -164 q 352 -157 365 -145 q 379 -132 386 -117 q 393 -101 393 -84 q 393 -75 389 -65 q 384 -56 371 -48 q 358 -40 334 -32 q 310 -25 271 -21 z m 438 313 q 438 275 422 244 q 405 213 377 191 q 350 169 313 156 q 276 144 236 144 l 231 144 q 212 127 207 116 q 202 106 202 103 q 202 99 205 94 q 208 90 219 86 q 230 82 252 78 q 274 73 312 68 q 370 61 407 51 q 445 40 467 25 q 489 11 498 -8 q 507 -27 507 -51 q 507 -74 496 -97 q 486 -120 467 -141 q 449 -163 424 -181 q 399 -199 370 -212 q 341 -226 309 -233 q 278 -241 247 -241 q 221 -241 194 -238 q 166 -234 139 -228 q 113 -221 89 -210 q 65 -200 47 -185 q 29 -170 18 -151 q 7 -132 7 -108 q 7 -96 12 -83 q 18 -71 31 -56 q 45 -42 69 -25 q 92 -8 130 12 q 74 35 74 60 q 74 65 79 74 q 83 83 94 95 q 104 107 122 122 q 139 137 163 153 q 136 161 113 174 q 91 187 75 205 q 59 223 50 246 q 42 268 42 294 q 42 330 59 362 q 77 394 106 417 q 135 441 174 455 q 213 469 255 469 q 289 469 318 459 q 348 450 371 435 q 414 440 448 451 q 482 461 502 469 l 516 451 q 515 445 511 438 q 508 431 505 423 q 501 416 497 408 q 493 400 488 395 q 472 392 455 390 q 438 388 417 387 q 427 370 433 351 q 438 333 438 313 z"},"j":{"x_min":0,"x_max":288,"ha":288,"o":"m 210 52 q 210 -4 200 -43 q 190 -82 174 -109 q 158 -136 138 -154 q 119 -172 99 -188 q 86 -198 70 -208 q 54 -217 37 -225 q 20 -232 4 -236 q -13 -241 -26 -241 q -45 -241 -66 -236 q -86 -231 -103 -224 q -119 -217 -130 -209 q -141 -201 -141 -196 q -141 -189 -130 -177 q -120 -165 -106 -152 q -92 -140 -78 -130 q -64 -120 -57 -116 q -49 -126 -38 -133 q -26 -141 -15 -146 q -3 -151 9 -154 q 20 -156 29 -156 q 42 -156 53 -149 q 65 -142 74 -123 q 83 -104 88 -69 q 93 -34 93 21 l 93 316 q 93 341 92 356 q 92 372 86 380 q 80 389 67 393 q 54 396 28 399 l 28 434 q 54 437 73 441 q 93 444 109 448 q 126 453 142 458 q 158 462 177 469 l 210 469 z m 230 616 q 230 599 224 585 q 218 572 207 562 q 196 552 181 547 q 166 542 148 542 q 135 542 123 545 q 110 548 101 555 q 92 562 86 572 q 81 582 81 596 q 81 612 87 626 q 94 640 105 649 q 116 659 131 664 q 146 669 163 669 q 176 669 188 666 q 201 663 210 656 q 219 650 224 640 q 230 630 230 616 z"},"i":{"x_min":0,"x_max":300,"ha":300,"o":"m 31 0 l 31 36 q 64 42 80 51 q 95 59 95 65 l 95 316 q 95 341 95 357 q 94 372 89 381 q 83 389 70 393 q 57 397 31 399 l 31 434 q 73 439 110 448 q 148 457 181 469 l 212 469 l 212 65 q 212 60 227 51 q 242 42 277 36 l 277 0 z m 231 616 q 231 599 225 585 q 218 572 207 562 q 196 552 181 547 q 167 542 149 542 q 135 542 123 545 q 111 548 102 555 q 93 562 87 572 q 82 582 82 596 q 82 612 88 626 q 95 640 106 649 q 117 659 132 664 q 146 669 164 669 q 177 669 189 666 q 201 663 210 656 q 220 650 225 640 q 231 630 231 616 z"},"y":{"x_min":0,"x_max":508,"ha":508,"o":"m 501 418 q 487 415 478 412 q 468 409 462 406 q 457 402 453 397 q 450 393 448 385 l 285 -37 q 264 -90 239 -129 q 215 -167 188 -192 q 160 -217 130 -229 q 101 -241 69 -241 q 51 -241 33 -237 q 15 -234 1 -229 q -13 -224 -22 -218 q -30 -212 -30 -208 q -30 -203 -22 -191 q -14 -178 -2 -164 q 9 -150 21 -137 q 34 -125 42 -120 q 66 -135 91 -139 q 115 -143 133 -136 q 151 -129 172 -108 q 193 -87 210 -45 l 224 -11 l 61 385 q 55 398 43 406 q 31 413 6 418 l 6 454 l 228 454 l 228 418 q 208 416 198 413 q 188 411 184 407 q 179 403 180 398 q 180 393 184 385 l 284 140 l 380 385 q 383 393 384 398 q 384 403 381 406 q 377 410 368 413 q 358 416 342 418 l 342 454 l 501 454 z"},"@":{"x_min":0,"x_max":877,"ha":877,"o":"m 510 357 q 499 379 486 392 q 472 404 448 404 q 405 404 383 362 q 360 320 360 229 q 360 187 367 158 q 374 129 385 112 q 396 94 409 86 q 423 78 436 78 q 445 78 453 81 q 461 83 469 90 q 478 96 487 108 q 497 119 510 137 z m 835 279 q 835 238 826 200 q 816 162 799 129 q 782 97 759 70 q 735 43 708 25 q 682 6 653 -4 q 624 -15 594 -15 q 580 -15 567 -11 q 554 -7 544 2 q 533 11 525 26 q 518 42 513 64 q 493 41 478 26 q 463 10 449 1 q 436 -8 421 -11 q 406 -15 387 -15 q 362 -15 336 -1 q 311 13 290 41 q 270 69 256 112 q 243 155 243 213 q 243 244 250 275 q 256 306 268 334 q 281 363 299 387 q 317 412 341 430 q 365 448 394 458 q 422 469 456 469 q 467 469 477 467 q 487 465 497 461 q 506 456 517 447 q 527 438 539 424 q 565 434 585 444 q 605 454 626 469 l 642 454 q 637 437 634 418 q 631 403 629 383 q 627 363 627 342 l 627 139 q 627 109 634 94 q 641 79 662 79 q 674 79 688 90 q 702 102 713 123 q 725 145 733 177 q 740 209 740 250 q 740 333 720 396 q 699 458 662 499 q 625 541 573 561 q 521 582 458 582 q 383 582 326 555 q 269 529 230 485 q 191 440 171 381 q 151 322 151 256 q 151 164 177 94 q 203 24 247 -23 q 291 -70 351 -94 q 410 -117 478 -117 q 524 -117 565 -109 q 606 -100 640 -87 q 674 -75 699 -60 q 724 -45 739 -33 l 762 -75 q 744 -95 716 -117 q 688 -140 650 -158 q 611 -177 562 -189 q 513 -202 454 -202 q 363 -202 287 -172 q 211 -143 157 -88 q 102 -33 72 47 q 42 126 42 227 q 42 286 57 342 q 72 397 100 446 q 128 494 168 535 q 208 575 256 604 q 304 633 360 649 q 416 666 477 666 q 557 666 623 642 q 688 618 736 570 q 783 522 809 449 q 835 377 835 279 z"},".":{"x_min":0,"x_max":270,"ha":270,"o":"m 224 64 q 224 44 217 29 q 210 13 198 2 q 186 -8 170 -14 q 153 -20 135 -20 q 121 -20 108 -16 q 95 -12 85 -4 q 75 4 70 16 q 64 29 64 46 q 64 65 71 81 q 79 97 91 107 q 104 118 120 124 q 136 130 154 130 q 167 130 180 126 q 193 122 203 114 q 212 106 218 94 q 224 81 224 64 z"},"p":{"x_min":0,"x_max":559,"ha":559,"o":"m 417 208 q 417 255 408 289 q 398 322 382 344 q 366 365 345 375 q 325 386 304 386 q 295 386 287 384 q 278 382 267 376 q 256 370 241 359 q 227 349 205 331 l 205 111 q 231 96 250 87 q 269 79 283 74 q 297 70 309 69 q 321 67 333 67 q 352 67 367 77 q 383 86 394 104 q 405 122 411 148 q 417 174 417 208 z m 527 244 q 527 212 519 180 q 510 149 496 120 q 481 91 462 67 q 443 42 422 24 q 401 6 379 -4 q 357 -15 337 -15 q 323 -15 309 -12 q 294 -9 279 -2 q 263 4 245 15 q 227 25 205 41 l 205 -168 q 205 -176 223 -184 q 242 -192 288 -199 l 288 -234 l 23 -234 l 23 -199 q 56 -191 72 -184 q 88 -177 88 -168 l 88 336 q 88 354 86 366 q 85 378 79 385 q 73 392 60 395 q 47 398 23 399 l 23 434 q 51 437 72 440 q 92 444 110 448 q 127 452 143 457 q 159 462 177 469 l 198 448 l 202 388 q 229 412 252 427 q 276 443 296 452 q 315 461 332 465 q 349 469 363 469 q 396 469 426 455 q 456 442 479 414 q 501 386 514 344 q 527 302 527 244 z"},"X":{"x_min":0,"x_max":630,"ha":630,"o":"m 358 0 l 358 36 q 379 38 393 41 q 406 44 412 49 q 417 53 417 60 q 416 67 409 77 l 294 244 l 183 77 q 176 66 174 59 q 172 52 177 47 q 183 42 196 40 q 209 37 231 36 l 231 0 l 12 0 l 12 36 q 43 38 65 48 q 87 57 101 77 l 251 307 l 93 539 q 85 549 79 556 q 72 563 63 567 q 55 572 44 574 q 33 577 17 580 l 17 615 l 281 615 l 281 580 q 239 576 227 568 q 214 560 229 539 l 330 391 l 423 539 q 430 550 431 557 q 432 564 427 569 q 421 573 408 576 q 396 578 374 580 l 374 615 l 595 615 l 595 580 q 577 578 563 575 q 549 572 539 567 q 528 562 520 556 q 512 549 505 539 l 372 330 l 545 77 q 552 66 559 59 q 566 52 575 48 q 583 43 594 40 q 604 38 619 36 l 619 0 z"},"*":{"x_min":0,"x_max":443,"ha":443,"o":"m 245 596 l 351 686 q 355 682 365 675 q 375 668 385 660 q 395 652 403 645 q 412 638 416 634 l 412 606 l 270 555 l 400 508 q 400 502 398 490 q 397 479 395 466 q 394 453 391 442 q 389 431 388 425 l 362 416 l 247 512 l 271 376 q 266 373 255 368 q 244 364 232 359 q 220 354 209 351 q 199 347 193 346 l 172 363 l 198 512 l 92 422 q 87 425 78 432 q 68 439 58 447 q 48 455 40 462 q 31 470 27 474 l 31 501 l 174 553 l 42 600 q 43 605 44 617 q 46 629 48 642 q 49 654 52 666 q 54 677 55 682 l 81 692 l 196 595 l 172 731 q 177 734 188 739 q 199 744 211 748 q 223 753 233 757 q 244 761 250 762 l 271 745 z"},"Y":{"x_min":0,"x_max":613,"ha":613,"o":"m 168 0 l 168 36 q 190 40 205 45 q 220 50 229 54 q 238 59 241 63 q 245 67 245 71 l 245 258 q 228 297 206 339 q 184 380 161 419 q 139 458 117 491 q 96 524 79 547 q 74 553 69 557 q 64 562 56 564 q 48 567 35 569 q 22 571 2 571 l 0 606 q 14 608 32 611 q 51 613 69 615 q 87 617 103 619 q 119 620 129 620 q 143 620 156 614 q 170 608 178 598 q 196 573 216 542 q 236 511 256 476 q 276 440 296 404 q 315 367 332 332 l 446 547 q 454 560 442 567 q 430 575 392 580 l 392 615 l 596 615 l 596 580 q 563 573 547 566 q 531 560 524 547 l 367 255 l 367 71 q 367 68 371 64 q 374 60 383 55 q 392 50 406 45 q 421 40 444 36 l 444 0 z"},"c":{"x_min":0,"x_max":456,"ha":456,"o":"m 436 93 q 404 57 377 35 q 351 14 326 3 q 302 -8 280 -11 q 257 -15 234 -15 q 195 -15 158 1 q 122 17 94 47 q 65 77 49 120 q 32 163 32 217 q 32 270 51 315 q 71 361 106 395 q 141 429 189 449 q 237 469 295 469 q 312 469 332 466 q 352 463 372 458 q 391 453 407 446 q 424 439 432 430 q 433 426 431 417 q 429 407 426 394 q 423 381 418 367 q 414 353 410 340 q 405 328 401 317 q 396 307 394 303 l 361 308 q 345 355 321 382 q 298 408 259 408 q 237 408 218 398 q 198 388 183 367 q 167 346 158 312 q 149 279 149 232 q 149 193 159 162 q 169 132 186 111 q 204 90 227 79 q 250 67 277 67 q 291 67 303 69 q 316 71 331 77 q 346 83 365 94 q 384 105 410 124 z"},"!":{"x_min":0,"x_max":309,"ha":309,"o":"m 232 64 q 232 44 225 29 q 218 13 206 2 q 194 -8 177 -14 q 161 -20 143 -20 q 128 -20 116 -16 q 103 -12 93 -4 q 83 4 78 16 q 72 29 72 46 q 72 65 80 81 q 87 97 99 107 q 112 118 128 124 q 144 130 162 130 q 175 130 188 126 q 201 122 211 114 q 221 106 227 94 q 232 81 232 64 z m 184 201 q 175 194 160 190 q 146 186 133 182 l 119 192 l 82 668 q 92 674 108 682 q 124 690 141 698 q 158 706 173 712 q 188 719 198 723 l 223 707 z"},"/":{"x_min":0,"x_max":476,"ha":476,"o":"m 118 -135 q 113 -139 103 -143 q 92 -147 80 -151 q 67 -155 56 -158 q 44 -162 39 -164 l 17 -148 l 359 754 q 366 758 376 762 q 387 766 398 770 q 409 773 420 776 q 430 779 437 781 l 459 767 z"},"[":{"x_min":0,"x_max":337,"ha":337,"o":"m 325 -111 q 324 -116 322 -123 q 319 -130 317 -138 q 314 -146 312 -152 q 309 -159 307 -164 l 61 -164 l 61 781 l 304 781 l 324 765 q 323 759 321 751 q 318 743 316 735 q 313 727 311 720 q 309 713 307 710 l 173 710 l 173 -93 l 304 -93 z"},"6":{"x_min":0,"x_max":506,"ha":506,"o":"m 266 315 q 245 315 220 301 q 196 287 172 262 q 172 204 181 163 q 189 123 204 97 q 218 71 238 60 q 258 48 281 48 q 302 48 316 59 q 330 69 338 86 q 347 104 350 125 q 354 147 354 170 q 354 216 346 244 q 338 272 325 288 q 313 304 297 309 q 282 315 266 315 z m 474 201 q 474 178 468 153 q 462 128 451 104 q 439 81 422 59 q 405 38 382 21 q 359 5 331 -5 q 303 -15 269 -15 q 223 -15 182 3 q 142 21 111 53 q 81 85 64 131 q 46 176 46 231 q 46 300 70 363 q 93 426 139 477 q 186 527 254 562 q 323 597 414 610 l 427 566 q 368 554 325 531 q 282 507 252 477 q 222 446 204 409 q 186 373 179 333 q 209 358 241 371 q 272 383 297 383 q 339 383 372 370 q 405 356 427 332 q 450 308 462 275 q 474 241 474 201 z"},"r":{"x_min":0,"x_max":444,"ha":444,"o":"m 427 447 q 430 445 430 435 q 430 424 428 409 q 426 394 422 375 q 418 357 414 339 q 409 322 404 307 q 399 292 396 283 l 360 283 q 358 302 354 320 q 350 337 343 350 q 336 363 327 371 q 317 378 306 378 q 296 378 284 375 q 273 371 260 361 q 248 350 234 331 q 220 311 205 279 l 205 65 q 205 58 225 50 q 246 42 292 36 l 292 0 l 23 0 l 23 36 q 88 50 88 65 l 88 324 q 88 340 87 351 q 86 362 84 369 q 83 376 81 380 q 79 384 77 386 q 73 390 70 392 q 66 394 60 396 q 55 397 46 398 q 37 398 23 399 l 23 434 q 50 438 70 441 q 90 444 107 448 q 124 452 140 457 q 157 462 177 469 l 198 448 l 204 377 q 217 396 234 413 q 250 430 269 442 q 288 455 309 462 q 329 469 350 469 q 369 469 389 463 q 409 458 427 447 z"},"2":{"x_min":0,"x_max":506,"ha":506,"o":"m 445 0 l 55 0 l 41 36 q 98 103 141 155 q 184 207 215 247 q 247 288 267 318 q 288 348 300 372 q 312 396 318 415 q 323 434 323 451 q 323 472 318 490 q 314 507 305 521 q 296 534 281 541 q 267 548 247 548 q 227 548 212 540 q 198 531 189 517 q 180 502 177 485 q 174 467 177 449 q 169 444 156 439 q 142 434 127 430 q 112 425 97 422 q 82 418 71 417 l 54 451 q 54 476 72 503 q 90 530 121 552 q 152 574 193 589 q 234 603 280 603 q 317 603 348 595 q 379 587 401 572 q 422 556 434 533 q 446 510 446 479 q 446 458 440 436 q 434 414 420 389 q 407 365 385 336 q 364 307 333 270 q 302 233 261 188 q 221 143 168 85 l 363 85 q 372 85 378 89 q 385 93 390 100 q 395 107 399 116 q 402 125 405 134 q 411 155 413 183 l 452 173 z"},"{":{"x_min":0,"x_max":350,"ha":350,"o":"m 338 744 q 300 720 276 688 q 252 656 252 619 q 252 593 255 573 q 258 553 262 535 q 266 516 269 496 q 272 476 272 451 q 272 430 265 410 q 258 391 245 373 q 232 356 215 342 q 197 328 177 319 q 226 310 249 276 q 272 242 272 188 q 272 162 269 139 q 266 117 262 96 q 258 75 255 55 q 252 35 252 14 q 252 -6 255 -23 q 258 -39 267 -54 q 276 -68 292 -82 q 308 -95 333 -109 l 315 -154 q 270 -137 235 -120 q 200 -103 176 -82 q 152 -61 139 -34 q 127 -7 127 28 q 127 54 130 74 q 133 95 137 115 q 141 135 144 157 q 147 178 147 206 q 147 246 130 262 q 113 279 82 279 l 72 279 q 69 279 66 279 q 64 278 61 278 q 58 277 50 276 l 42 316 q 97 332 122 358 q 147 385 147 421 q 147 448 144 468 q 141 487 137 506 q 133 524 130 544 q 127 563 127 591 q 127 624 142 651 q 156 679 182 703 q 208 726 243 745 q 278 765 318 781 z"},"9":{"x_min":0,"x_max":506,"ha":506,"o":"m 250 278 q 277 278 301 293 q 325 307 343 329 q 342 396 333 437 q 325 478 312 501 q 298 524 282 533 q 266 541 249 541 q 208 541 185 509 q 163 476 163 418 q 163 377 172 350 q 181 323 194 307 q 207 291 222 285 q 237 278 250 278 z m 469 357 q 469 283 446 219 q 423 154 377 105 q 331 55 261 22 q 192 -10 100 -21 l 88 22 q 156 39 202 63 q 249 87 278 117 q 307 147 321 183 q 336 219 340 260 q 315 235 284 221 q 252 207 218 207 q 175 207 142 221 q 109 236 87 261 q 64 286 53 319 q 42 352 42 388 q 42 413 49 438 q 56 464 70 488 q 83 512 103 533 q 123 554 147 569 q 171 585 200 594 q 229 603 262 603 q 307 603 345 589 q 383 575 410 545 q 438 515 453 468 q 469 422 469 357 z"}," ":{"x_min":0,"x_max":249,"ha":249,"o":""},"I":{"x_min":0,"x_max":327,"ha":327,"o":"m 31 0 l 31 36 q 64 42 81 51 q 98 59 98 65 l 98 549 q 98 555 82 564 q 66 573 31 580 l 31 615 l 287 615 l 287 580 q 254 573 237 564 q 220 556 220 549 l 220 65 q 220 60 236 51 q 252 42 287 36 l 287 0 z"},"H":{"x_min":0,"x_max":683,"ha":683,"o":"m 21 0 l 21 36 q 54 42 71 51 q 88 59 88 65 l 88 549 q 88 555 72 564 q 56 573 21 580 l 21 615 l 277 615 l 277 580 q 244 573 227 564 q 210 556 210 549 l 210 352 l 464 352 l 464 549 q 464 555 448 564 q 432 573 397 580 l 397 615 l 653 615 l 653 580 q 620 573 603 564 q 586 556 586 549 l 586 65 q 586 60 602 51 q 618 42 653 36 l 653 0 l 397 0 l 397 36 q 430 42 447 51 q 464 59 464 65 l 464 293 l 210 293 l 210 65 q 210 60 226 51 q 242 42 277 36 l 277 0 z"},"4":{"x_min":0,"x_max":506,"ha":506,"o":"m 278 479 l 123 232 l 278 232 z m 467 217 q 457 202 443 187 q 429 172 417 164 l 391 164 l 391 65 q 391 62 394 58 q 396 55 404 52 q 412 48 425 44 q 438 40 458 36 l 458 0 l 176 0 l 176 36 q 208 41 228 46 q 248 50 259 54 q 270 59 274 62 q 278 66 278 71 l 278 164 l 47 164 l 27 184 l 262 570 q 273 574 288 579 q 302 583 316 589 q 331 594 345 599 q 358 604 369 608 l 391 587 l 391 232 l 455 232 z"},"~":{"x_min":0,"x_max":488,"ha":488,"o":"m 464 378 q 454 354 438 328 q 422 303 403 281 q 384 260 362 247 q 339 233 316 233 q 295 233 272 245 q 250 257 226 272 q 202 287 179 299 q 156 311 135 311 q 111 311 91 292 q 70 273 50 232 l 24 245 q 34 269 50 295 q 66 320 85 342 q 104 363 126 376 q 148 390 172 390 q 194 390 218 378 q 242 366 265 351 q 288 336 310 324 q 333 312 352 312 q 375 312 396 331 q 417 350 438 390 z"},"D":{"x_min":0,"x_max":637,"ha":637,"o":"m 596 330 q 596 269 584 221 q 571 173 550 136 q 528 99 500 73 q 471 48 438 31 q 405 15 370 8 q 335 0 302 0 l 21 0 l 21 36 q 54 42 71 51 q 88 59 88 65 l 88 565 l 21 556 l 15 601 q 39 606 72 612 q 104 617 141 621 q 177 625 214 628 q 250 630 282 630 q 357 630 416 610 q 474 589 514 551 q 554 512 575 457 q 596 401 596 330 z m 247 578 q 238 578 229 578 q 220 578 210 577 l 210 82 q 210 78 211 75 q 212 69 216 65 q 220 61 229 58 q 237 55 250 54 q 264 52 284 52 q 303 52 323 59 q 344 65 365 79 q 385 92 403 113 q 421 134 435 163 q 449 191 457 228 q 465 265 465 311 q 465 376 451 426 q 437 476 409 510 q 382 543 341 561 q 300 578 247 578 z"},"^":{"x_min":0,"x_max":492,"ha":492,"o":"m 443 310 q 431 299 419 291 q 408 284 391 276 l 373 289 l 235 642 l 113 310 q 107 305 101 300 q 94 295 86 290 q 79 286 72 282 q 65 278 60 276 l 49 289 l 206 714 q 212 720 220 726 q 229 732 238 738 q 247 744 255 749 q 264 753 271 757 z"},"0":{"x_min":0,"x_max":506,"ha":506,"o":"m 349 276 q 349 343 341 392 q 333 442 320 475 q 306 507 288 523 q 269 540 247 540 q 225 540 208 527 q 191 515 180 488 q 169 461 163 419 q 158 376 158 315 q 158 181 184 115 q 210 49 259 49 q 281 49 298 61 q 315 73 326 100 q 337 127 343 171 q 349 214 349 276 z m 476 294 q 476 231 459 175 q 442 119 412 77 q 382 35 340 10 q 298 -15 247 -15 q 196 -15 156 10 q 116 35 88 77 q 60 119 45 175 q 30 231 30 294 q 30 357 46 413 q 62 469 91 511 q 121 554 164 578 q 206 603 259 603 q 311 603 351 579 q 392 554 419 512 q 447 470 462 414 q 476 357 476 294 z"},"F":{"x_min":0,"x_max":507,"ha":507,"o":"m 21 0 l 21 36 q 54 42 71 51 q 88 59 88 65 l 88 549 q 88 555 72 564 q 56 573 21 580 l 21 615 l 456 615 l 475 600 q 474 587 472 568 q 470 549 468 529 q 465 509 462 491 q 458 473 456 464 l 418 464 q 417 509 406 533 q 396 557 378 557 l 210 557 l 210 359 l 389 359 l 407 342 q 402 333 396 324 q 391 315 384 307 q 378 298 372 291 q 366 284 361 280 q 354 288 345 292 q 337 297 326 301 q 315 304 300 306 q 285 307 265 307 l 210 307 l 210 65 q 210 62 214 59 q 218 56 227 52 q 236 48 252 44 q 268 40 292 36 l 292 0 z"},"`":{"x_min":0,"x_max":319,"ha":319,"o":"m 221 530 q 218 527 212 524 q 207 521 201 518 q 195 514 189 512 q 183 509 179 508 l -8 692 l 6 719 q 11 720 26 723 q 42 726 59 729 q 77 732 93 735 q 108 738 114 738 z"},"k":{"x_min":0,"x_max":551,"ha":551,"o":"m 23 0 l 23 36 q 56 44 72 50 q 88 57 88 65 l 88 618 q 88 641 86 653 q 83 665 77 671 q 70 677 57 679 q 44 681 23 684 l 23 718 q 71 725 111 733 q 150 742 184 757 l 205 737 l 205 261 l 333 375 q 350 390 354 399 q 359 407 355 412 q 352 416 342 417 q 333 418 320 418 l 320 454 l 538 454 l 538 418 q 516 416 495 408 q 474 400 453 385 l 304 272 l 480 73 q 487 65 494 60 q 500 56 509 53 q 517 51 528 51 q 538 51 552 52 l 555 16 q 541 13 523 9 q 505 5 488 2 q 471 -1 458 -3 q 444 -5 439 -5 q 419 -5 405 1 q 391 7 380 21 l 205 252 l 205 65 q 205 62 207 59 q 208 56 214 52 q 219 49 230 45 q 241 42 259 36 l 259 0 z"},"u":{"x_min":0,"x_max":563,"ha":563,"o":"m 559 55 q 541 43 519 31 q 497 19 477 8 q 457 -2 441 -8 q 425 -15 419 -15 q 410 -15 402 -11 q 394 -8 387 1 q 380 10 375 26 q 369 42 366 66 q 336 40 312 24 q 288 8 268 0 q 248 -9 231 -12 q 215 -15 199 -15 q 176 -15 154 -8 q 132 -2 115 15 q 97 32 86 61 q 76 90 76 136 l 76 336 q 76 360 75 373 q 74 386 69 392 q 63 399 51 401 q 39 404 17 406 l 17 440 q 41 442 61 445 q 82 447 100 450 q 119 454 137 458 q 155 462 176 469 l 193 446 l 193 167 q 193 137 197 118 q 200 99 208 88 q 215 78 225 74 q 236 70 250 70 q 260 70 272 72 q 284 75 298 81 q 312 88 329 99 q 346 110 366 128 l 366 336 q 366 358 365 372 q 363 385 356 392 q 350 399 337 402 q 324 405 302 406 l 302 440 q 351 445 390 452 q 430 460 465 469 l 483 446 l 483 139 q 483 124 484 114 q 484 104 486 97 q 487 90 489 86 q 491 83 495 80 q 500 76 511 78 q 521 81 546 91 z"},"]":{"x_min":0,"x_max":337,"ha":337,"o":"m 33 -164 l 13 -147 q 14 -141 16 -133 q 19 -125 21 -117 q 23 -109 26 -102 q 28 -96 30 -93 l 164 -93 l 164 710 l 33 710 l 12 728 q 13 733 16 740 q 18 748 21 755 q 23 763 26 770 q 28 777 30 781 l 276 781 l 276 -164 z"},"U":{"x_min":0,"x_max":668,"ha":668,"o":"m 641 580 q 608 573 591 564 q 574 556 574 549 l 574 256 q 574 192 556 142 q 538 91 506 57 q 474 22 429 4 q 385 -15 333 -15 q 282 -15 238 -1 q 193 13 160 42 q 126 70 107 114 q 88 157 88 217 l 88 549 q 88 555 72 564 q 56 573 21 580 l 21 615 l 277 615 l 277 580 q 244 573 227 564 q 210 556 210 549 l 210 249 q 210 202 218 166 q 227 130 245 105 q 263 81 292 69 q 321 56 363 56 q 397 56 421 72 q 445 87 460 113 q 475 139 482 173 q 488 207 488 243 l 488 549 q 488 555 472 564 q 457 573 421 580 l 421 615 l 641 615 z"},"o":{"x_min":0,"x_max":525,"ha":525,"o":"m 370 215 q 370 253 362 288 q 354 323 339 350 q 325 376 304 392 q 283 408 258 408 q 228 408 208 394 q 188 381 176 357 q 165 333 160 301 q 155 269 155 231 q 155 192 164 159 q 173 125 189 100 q 204 75 224 61 q 245 46 267 46 q 296 46 316 58 q 335 69 348 90 q 360 112 365 143 q 370 174 370 215 z m 493 237 q 493 204 484 173 q 476 142 460 114 q 444 86 422 62 q 400 39 373 21 q 347 4 316 -5 q 286 -15 253 -15 q 203 -15 162 3 q 121 21 92 51 q 63 82 48 125 q 32 167 32 217 q 32 265 50 311 q 67 356 99 391 q 131 426 176 448 q 220 469 272 469 q 322 469 363 451 q 404 434 433 403 q 462 372 478 329 q 493 287 493 237 z"},"N":{"x_min":0,"x_max":664,"ha":664,"o":"m 21 0 l 21 36 q 57 40 72 49 q 88 59 88 65 l 88 544 q 56 574 21 580 l 21 615 l 157 615 q 165 615 169 614 q 174 613 179 609 q 184 605 189 597 q 195 590 204 577 l 503 163 l 503 549 q 503 552 500 556 q 497 561 489 565 q 481 569 469 573 q 456 577 436 580 l 436 615 l 644 615 l 644 580 q 608 575 592 565 q 576 556 576 549 l 576 -15 q 529 -11 501 4 q 473 18 459 36 l 161 449 l 161 65 q 161 62 165 58 q 168 54 176 50 q 184 46 197 42 q 209 38 229 36 l 229 0 z"},"+":{"x_min":0,"x_max":421,"ha":421,"o":"m 247 110 q 242 107 235 104 q 228 102 220 99 q 212 96 205 94 q 197 92 192 91 l 176 105 l 176 240 l 42 240 l 26 255 q 27 260 30 268 q 33 275 36 283 q 40 291 43 298 q 46 305 48 310 l 176 310 l 176 440 l 188 444 q 195 447 203 449 q 211 452 219 455 q 226 457 231 458 l 247 443 l 247 310 l 379 310 l 396 294 q 394 289 391 281 q 388 274 385 266 q 381 258 378 251 q 375 244 373 240 l 247 240 z"},"G":{"x_min":0,"x_max":602,"ha":602,"o":"m 535 580 q 537 578 535 571 q 533 564 529 554 q 524 544 517 533 q 511 521 504 510 q 498 500 491 491 q 485 483 480 479 l 450 486 q 434 509 417 525 q 401 542 383 551 q 366 561 347 565 q 328 569 307 569 q 294 569 278 564 q 262 559 244 547 q 227 536 210 516 q 193 497 180 468 q 167 439 159 401 q 150 362 150 311 q 150 246 166 199 q 181 152 206 122 q 231 91 263 77 q 295 62 330 62 q 357 62 378 67 q 399 72 417 81 l 417 229 q 417 235 415 240 q 413 245 405 250 q 397 255 381 260 q 365 265 338 270 l 338 305 l 581 305 l 581 270 q 553 263 543 252 q 534 241 534 229 l 534 83 q 498 53 466 34 q 435 15 407 4 q 380 -6 355 -10 q 331 -15 309 -15 q 273 -15 239 -7 q 204 1 173 18 q 142 34 115 59 q 88 84 68 117 q 49 150 38 192 q 27 234 27 284 q 27 365 53 429 q 79 494 125 538 q 170 583 232 606 q 294 630 367 630 q 383 630 406 626 q 428 623 451 617 q 475 610 497 601 q 519 592 535 580 z"},"q":{"x_min":0,"x_max":548,"ha":548,"o":"m 256 78 q 283 78 307 92 q 332 105 360 132 l 360 342 q 352 356 340 367 q 328 379 314 387 q 301 396 286 400 q 271 404 258 404 q 234 404 215 395 q 195 386 180 367 q 166 348 157 318 q 149 288 149 247 q 149 205 158 174 q 167 142 183 121 q 198 100 217 89 q 236 78 256 78 z m 277 -234 l 277 -199 q 323 -192 342 -184 q 360 -177 360 -168 l 360 67 q 338 45 319 30 q 300 14 281 4 q 263 -5 243 -10 q 223 -15 200 -15 q 171 -15 141 1 q 111 17 87 47 q 63 77 47 120 q 32 163 32 217 q 32 260 42 293 q 53 327 70 353 q 86 379 106 397 q 125 415 143 426 q 156 435 172 443 q 188 451 205 457 q 221 462 238 466 q 254 469 269 469 q 283 469 297 467 q 310 465 324 459 q 338 454 354 443 q 369 433 387 415 q 399 421 412 428 q 425 436 438 443 q 450 451 459 458 q 469 464 474 469 l 493 451 q 488 435 485 417 q 482 401 480 381 q 478 361 478 339 l 478 -168 q 478 -172 480 -176 q 483 -180 491 -184 q 498 -188 510 -192 q 523 -195 542 -199 l 542 -234 z"},"d":{"x_min":0,"x_max":561,"ha":561,"o":"m 557 56 q 535 41 512 28 q 489 15 469 6 q 449 -4 434 -9 q 419 -15 412 -15 q 377 -15 367 71 q 345 48 326 32 q 307 16 289 5 q 271 -5 252 -10 q 233 -15 210 -15 q 178 -15 146 1 q 114 17 88 47 q 63 77 47 120 q 32 163 32 217 q 32 266 49 311 q 66 357 98 392 q 129 427 173 448 q 217 469 269 469 q 292 469 315 463 q 337 458 364 440 l 364 607 q 364 634 363 650 q 362 666 356 675 q 350 683 336 686 q 323 689 297 691 l 297 725 q 351 730 394 740 q 437 749 462 757 l 481 739 l 481 146 q 481 129 482 117 q 482 105 484 98 q 485 91 487 87 q 489 83 492 81 q 495 80 499 79 q 502 78 508 79 q 513 80 522 83 q 530 85 543 91 z m 364 131 l 364 345 q 346 373 320 389 q 294 404 261 404 q 237 404 216 395 q 196 386 181 366 q 166 346 157 316 q 149 286 149 243 q 149 204 159 174 q 168 143 184 122 q 200 101 220 89 q 240 78 260 78 q 287 78 311 92 q 335 105 364 131 z"},"1":{"x_min":0,"x_max":506,"ha":506,"o":"m 76 0 l 76 41 q 114 45 139 51 q 165 56 180 62 q 195 68 201 73 q 208 79 208 84 l 208 444 q 208 464 206 475 q 205 485 199 492 q 196 495 188 497 q 181 499 166 499 q 151 498 129 495 q 107 492 75 485 l 61 525 q 74 528 94 534 q 115 540 138 547 q 161 554 185 563 q 209 571 232 580 q 254 588 273 595 q 292 603 303 608 l 325 587 l 325 84 q 325 80 330 74 q 335 68 349 62 q 363 57 386 51 q 410 45 447 41 l 447 0 z"},"5":{"x_min":0,"x_max":506,"ha":506,"o":"m 449 200 q 449 158 436 119 q 423 80 396 50 q 369 21 327 3 q 286 -15 229 -15 q 207 -15 182 -10 q 157 -5 132 5 q 107 15 83 29 q 59 44 38 63 l 62 107 q 88 89 111 78 q 133 67 153 60 q 172 54 188 51 q 205 49 219 49 q 243 49 264 59 q 284 69 299 86 q 313 104 322 127 q 330 151 330 179 q 330 212 322 238 q 313 264 297 281 q 282 298 260 307 q 238 316 211 316 q 172 316 144 305 q 116 293 90 273 l 67 290 q 70 307 74 332 q 78 356 82 383 q 86 411 90 440 q 94 469 98 496 q 101 523 104 547 q 106 571 107 588 l 364 588 q 378 588 389 590 q 399 591 407 593 q 416 595 423 597 l 441 580 q 436 572 427 560 q 418 548 408 536 q 398 524 389 514 q 380 504 375 500 l 164 500 q 163 485 161 467 q 159 449 156 430 q 153 412 150 396 q 147 379 145 368 q 167 378 194 383 q 221 388 252 388 q 301 388 338 372 q 375 356 399 330 q 424 304 436 270 q 449 236 449 200 z"}}}
